<mxfile host="app.diagrams.net" modified="2022-05-05T13:12:29.065Z" agent="5.0 (Windows NT 10.0; Win64; x64) AppleWebKit/537.36 (KHTML, like Gecko) Chrome/100.0.4896.127 Safari/537.36" etag="hzEciky1TxD9stnLbrVn" version="18.0.0" type="github">
  <diagram id="ev55QM4pBGHj_VkQhgII" name="Page-1">
    <mxGraphModel dx="602" dy="395" grid="1" gridSize="10" guides="1" tooltips="1" connect="1" arrows="1" fold="1" page="1" pageScale="1" pageWidth="827" pageHeight="1169" math="0" shadow="0">
      <root>
        <mxCell id="0" />
        <mxCell id="1" parent="0" />
        <mxCell id="ZfgU2-nMc-xIi9NZ5b5N-1" value="User" style="shape=umlActor;verticalLabelPosition=bottom;verticalAlign=top;html=1;outlineConnect=0;" vertex="1" parent="1">
          <mxGeometry x="460" y="440" width="30" height="60" as="geometry" />
        </mxCell>
        <mxCell id="ZfgU2-nMc-xIi9NZ5b5N-2" value="Vercel" style="shape=cylinder3;whiteSpace=wrap;html=1;boundedLbl=1;backgroundOutline=1;size=15;" vertex="1" parent="1">
          <mxGeometry x="240" y="440" width="60" height="80" as="geometry" />
        </mxCell>
        <mxCell id="ZfgU2-nMc-xIi9NZ5b5N-5" value="minecraft-ripenote" style="ellipse;shape=cloud;whiteSpace=wrap;html=1;" vertex="1" parent="1">
          <mxGeometry x="60" y="260" width="190" height="80" as="geometry" />
        </mxCell>
        <mxCell id="ZfgU2-nMc-xIi9NZ5b5N-6" value="docs-minecraft-ripenote" style="ellipse;shape=cloud;whiteSpace=wrap;html=1;" vertex="1" parent="1">
          <mxGeometry x="380" y="260" width="210" height="80" as="geometry" />
        </mxCell>
        <mxCell id="ZfgU2-nMc-xIi9NZ5b5N-19" value="" style="shape=callout;whiteSpace=wrap;html=1;perimeter=calloutPerimeter;verticalAlign=middle;" vertex="1" parent="1">
          <mxGeometry x="360" y="120" width="210" height="150" as="geometry" />
        </mxCell>
        <mxCell id="ZfgU2-nMc-xIi9NZ5b5N-7" value="&lt;h1&gt;MDX&lt;/h1&gt;&lt;p&gt;Lorem ipsum dolor sit amet, consectetur adipisicing elit, sed do eiusmod tempor incididunt ut labore et dolore magna aliqua.&lt;/p&gt;" style="text;html=1;strokeColor=none;fillColor=none;spacing=5;spacingTop=-20;whiteSpace=wrap;overflow=hidden;rounded=0;" vertex="1" parent="1">
          <mxGeometry x="370" y="120" width="190" height="120" as="geometry" />
        </mxCell>
        <mxCell id="ZfgU2-nMc-xIi9NZ5b5N-21" value="" style="shape=flexArrow;endArrow=classic;html=1;rounded=0;entryX=0.947;entryY=0.5;entryDx=0;entryDy=0;entryPerimeter=0;" edge="1" parent="1" target="ZfgU2-nMc-xIi9NZ5b5N-5">
          <mxGeometry width="50" height="50" relative="1" as="geometry">
            <mxPoint x="380" y="300" as="sourcePoint" />
            <mxPoint x="270" y="170" as="targetPoint" />
          </mxGeometry>
        </mxCell>
        <mxCell id="ZfgU2-nMc-xIi9NZ5b5N-24" value="" style="shape=note;whiteSpace=wrap;html=1;backgroundOutline=1;darkOpacity=0.05;size=18;" vertex="1" parent="1">
          <mxGeometry x="280" y="220" width="40" height="50" as="geometry" />
        </mxCell>
        <mxCell id="ZfgU2-nMc-xIi9NZ5b5N-25" value="GitHub Actions" style="text;html=1;strokeColor=none;fillColor=none;align=center;verticalAlign=middle;whiteSpace=wrap;rounded=0;" vertex="1" parent="1">
          <mxGeometry x="240" y="190" width="120" height="30" as="geometry" />
        </mxCell>
        <mxCell id="ZfgU2-nMc-xIi9NZ5b5N-26" value="" style="shape=flexArrow;endArrow=classic;startArrow=classic;html=1;rounded=0;entryX=0.526;entryY=1;entryDx=0;entryDy=0;entryPerimeter=0;exitX=0.5;exitY=0;exitDx=0;exitDy=0;exitPerimeter=0;" edge="1" parent="1" source="ZfgU2-nMc-xIi9NZ5b5N-2" target="ZfgU2-nMc-xIi9NZ5b5N-5">
          <mxGeometry width="100" height="100" relative="1" as="geometry">
            <mxPoint x="50" y="460" as="sourcePoint" />
            <mxPoint x="150" y="360" as="targetPoint" />
          </mxGeometry>
        </mxCell>
        <mxCell id="ZfgU2-nMc-xIi9NZ5b5N-28" value="" style="shape=callout;whiteSpace=wrap;html=1;perimeter=calloutPerimeter;verticalAlign=middle;" vertex="1" parent="1">
          <mxGeometry x="20" y="120" width="210" height="150" as="geometry" />
        </mxCell>
        <mxCell id="ZfgU2-nMc-xIi9NZ5b5N-29" value="&lt;h1&gt;Javascript&lt;/h1&gt;&lt;p&gt;Lorem ipsum dolor sit amet, consectetur adipisicing elit, sed do eiusmod tempor incididunt ut labore et dolore magna aliqua.&lt;/p&gt;" style="text;html=1;strokeColor=none;fillColor=none;spacing=5;spacingTop=-20;whiteSpace=wrap;overflow=hidden;rounded=0;" vertex="1" parent="1">
          <mxGeometry x="30" y="120" width="190" height="120" as="geometry" />
        </mxCell>
        <mxCell id="ZfgU2-nMc-xIi9NZ5b5N-30" value="" style="endArrow=classic;html=1;rounded=0;entryX=1;entryY=0.5;entryDx=0;entryDy=0;entryPerimeter=0;" edge="1" parent="1" target="ZfgU2-nMc-xIi9NZ5b5N-2">
          <mxGeometry width="50" height="50" relative="1" as="geometry">
            <mxPoint x="450" y="480" as="sourcePoint" />
            <mxPoint x="350" y="340" as="targetPoint" />
          </mxGeometry>
        </mxCell>
      </root>
    </mxGraphModel>
  </diagram>
</mxfile>
